<?xml version="1.0" standalone="no"?><!DOCTYPE svg PUBLIC "-//W3C//DTD SVG 1.1//EN" "http://www.w3.org/Graphics/SVG/1.1/DTD/svg11.dtd"><svg t="1567925906140" class="icon" viewBox="0 0 1024 1024" version="1.1" xmlns="http://www.w3.org/2000/svg" p-id="2238" xmlns:xlink="http://www.w3.org/1999/xlink" width="200" height="200"><defs><style type="text/css"></style></defs><path d="M486.678288 64.643276l49.773613 0 0 75.630515-49.773613 0 0-75.630515Z" p-id="2239" fill="#1296db"></path><path d="M224.251825 161.234826l54.681268 52.2831-34.400666 35.978587-54.681268-52.2831 34.400666-35.978587Z" p-id="2240" fill="#1296db"></path><path d="M799.906822 161.249103l34.402814 35.970651-54.670006 52.287129-34.402814-35.970651 54.670006-52.287129Z" p-id="2241" fill="#1296db"></path><path d="M63.605643 440.488293l75.627445 0 0 49.773613-75.627445 0 0-49.773613Z" p-id="2242" fill="#1296db"></path><path d="M880.726899 440.472943l78.798671 0 0 49.773613-78.798671 0 0-49.773613Z" p-id="2243" fill="#1296db"></path><path d="M632.014374 783.154653c-9.307993 0-18.240433-5.246491-22.499433-14.214746-5.89322-12.415774-0.613984-27.259854 11.805884-33.159214 88.921215-42.240033 146.380882-133.1086 146.380882-231.498468 0-141.231605-114.901936-256.133541-256.136611-256.133541s-256.136611 114.901936-256.136611 256.133541c0 98.390891 57.459666 189.259458 146.380882 231.498468 12.418844 5.89936 17.699104 20.74344 11.805884 33.159214-5.89936 12.412704-20.761859 17.689894-33.156144 11.802814C274.270621 730.300888 205.65487 621.784382 205.65487 504.282225c0-168.676677 137.230478-305.908178 305.911248-305.908178s305.911248 137.230478 305.911248 305.908178c0 117.502158-68.615751 226.018663-174.804235 276.460496C639.226636 782.38001 635.593899 783.154653 632.014374 783.154653z" p-id="2244" fill="#1296db"></path><path d="M599.174432 960.037223 423.956781 960.037223c-31.819706 0-57.709353-25.886577-57.709353-57.706283L366.247428 758.261707c0-13.744026 11.142781-24.886807 24.886807-24.886807s24.886807 11.142781 24.886807 24.886807l0 144.069233c0 4.298909 3.63376 7.931646 7.934716 7.931646l175.21765 0c4.301979 0 7.934716-3.63376 7.934716-7.931646L607.108125 758.261707c0-13.744026 11.142781-24.886807 24.886807-24.886807s24.886807 11.142781 24.886807 24.886807l0 144.069233C656.883785 934.150646 630.994138 960.037223 599.174432 960.037223z" p-id="2245" fill="#1296db"></path><path d="M631.995955 843.589071 391.134235 843.589071c-13.744026 0-24.886807-11.142781-24.886807-24.886807s11.142781-24.886807 24.886807-24.886807l240.86172 0c13.744026 0 24.886807 11.142781 24.886807 24.886807S645.73998 843.589071 631.995955 843.589071z" p-id="2246" fill="#1296db"></path></svg>